<?xml version="1.0" standalone="no"?>
<!DOCTYPE svg PUBLIC "-//W3C//DTD SVG 20010904//EN">
<svg version="1.0" xmlns="http://www.w3.org/2000/svg"
 width="1000.000000pt" height="1000.000000pt" viewBox="0 0 1000.000000 1000.000000"
 preserveAspectRatio="xMidYMid meet">
<g transform="translate(0.000000,1000.000000) scale(0.100000,-0.100000)"
fill="#000000" stroke="none">
<path d="M2250 7717 c0 -5 19 -40 42 -76 306 -486 859 -858 1543 -1036 365
-95 706 -135 1160 -135 717 0 1271 114 1776 367 353 176 642 411 848 686 62
83 139 207 129 207 -3 0 -93 -18 -201 -40 -626 -126 -1178 -198 -1917 -251
-239 -17 -1057 -23 -1320 -10 -616 30 -1272 121 -1887 259 -95 22 -173 35
-173 29z"/>
<path d="M7389 7114 c-38 -41 -210 -169 -321 -240 -137 -88 -412 -222 -573
-279 -355 -128 -722 -201 -1125 -226 -91 -5 -207 -13 -259 -17 l-94 -7 -23
-115 c-109 -560 -344 -1060 -698 -1484 -37 -44 -65 -81 -63 -83 2 -1 62 31
133 72 163 96 414 223 664 337 634 289 1172 660 1656 1143 280 280 569 635
723 888 26 43 16 49 -20 11z"/>
<path d="M5735 5321 c-39 -38 -472 -267 -680 -360 -431 -192 -821 -418 -1160
-670 -394 -294 -784 -683 -1085 -1081 -110 -146 -242 -341 -235 -348 2 -3 24
13 47 34 24 22 81 68 126 103 480 364 1139 587 1872 631 96 6 217 14 269 18
l94 7 23 115 c108 556 348 1068 693 1477 34 40 61 75 61 78 0 8 -15 6 -25 -4z"/>
<path d="M4595 3519 c-880 -71 -1586 -365 -2053 -853 -102 -107 -212 -249
-262 -338 -17 -32 -30 -58 -28 -58 3 0 93 18 201 40 626 126 1178 198 1917
251 239 17 1057 23 1320 10 616 -30 1272 -121 1888 -259 94 -22 172 -35 172
-29 0 5 -19 40 -42 76 -151 240 -388 477 -648 647 -451 294 -990 461 -1664
514 -148 12 -653 11 -801 -1z"/>
</g>
</svg>
