<?xml version="1.0" standalone="no"?>
<!DOCTYPE svg PUBLIC "-//W3C//DTD SVG 20010904//EN"
 "http://www.w3.org/TR/2001/REC-SVG-20010904/DTD/svg10.dtd">
<svg version="1.0" xmlns="http://www.w3.org/2000/svg"
 width="683.000000pt" height="683.000000pt" viewBox="0 0 683.000000 683.000000"
 preserveAspectRatio="xMidYMid meet">
<metadata>
Created by potrace 1.14, written by Peter Selinger 2001-2017
</metadata>
<g transform="translate(0.000000,683.000000) scale(0.100000,-0.100000)"
fill="#000000" stroke="none">
<path d="M1340 5491 c0 -6 32 -59 72 -118 85 -126 258 -305 386 -398 402 -291
894 -435 1537 -452 691 -18 1256 128 1698 437 107 75 291 254 365 355 59 80
110 171 100 180 -3 4 -89 -12 -190 -34 -637 -139 -1138 -194 -1768 -194 -686
0 -1355 67 -2024 203 -164 33 -176 34 -176 21z"/>
<path d="M5200 5024 c-381 -335 -898 -519 -1565 -556 -115 -6 -211 -12 -212
-12 -1 -1 -13 -57 -27 -126 -71 -349 -184 -625 -371 -905 -51 -77 -128 -180
-170 -228 -42 -49 -74 -91 -72 -94 3 -2 59 28 124 67 65 40 242 133 393 207
370 181 433 214 585 304 537 319 1024 792 1363 1325 77 121 72 123 -48 18z"/>
<path d="M3910 3624 c-114 -68 -206 -115 -666 -340 -557 -272 -1063 -683
-1448 -1178 -99 -127 -271 -385 -262 -393 3 -4 28 14 54 39 182 176 471 344
757 441 266 90 527 138 860 158 105 6 193 14 197 17 4 4 17 54 28 111 29 137
72 292 117 410 81 218 247 503 393 676 96 114 104 124 99 129 -3 3 -61 -29
-129 -70z"/>
<path d="M3145 2294 c-549 -43 -991 -188 -1347 -440 -120 -85 -321 -289 -396
-402 -83 -125 -82 -148 8 -122 45 14 444 85 619 111 531 78 957 109 1496 109
635 0 1060 -45 1719 -181 132 -27 242 -46 245 -44 9 10 -36 89 -97 171 -317
428 -833 692 -1522 780 -120 15 -607 27 -725 18z"/>
</g>
</svg>
